<svg xmlns="http://www.w3.org/2000/svg" viewBox="0 0 512 512" fill="none">
  <defs>
    <linearGradient id="bg" x1="0%" y1="0%" x2="100%" y2="100%">
      <stop offset="0%" stop-color="#155BEF"/>
      <stop offset="100%" stop-color="#0A2A87"/>
    </linearGradient>
    <linearGradient id="leftGrad" x1="0%" y1="0%" x2="100%" y2="100%">
      <stop offset="0%" stop-color="#A8D4FF"/>
      <stop offset="100%" stop-color="#66B4FF"/>
    </linearGradient>
    <linearGradient id="rightGrad" x1="0%" y1="100%" x2="100%" y2="0%">
      <stop offset="0%" stop-color="#66B4FF"/>
      <stop offset="100%" stop-color="#2E83FF"/>
    </linearGradient>
    <linearGradient id="ribbonGrad" x1="0%" y1="50%" x2="100%" y2="50%">
      <stop offset="0%" stop-color="#FFFFFF"/>
      <stop offset="50%" stop-color="#A8D4FF"/>
      <stop offset="100%" stop-color="#66B4FF"/>
    </linearGradient>
  </defs>
  <rect width="512" height="512" rx="112" fill="url(#bg)"/>
  <g transform="translate(86,78) scale(2.85)">
    <path d="M18 98 L18 28 L38 12 L42 16 L42 86 L28 98 Z" fill="url(#leftGrad)"/>
    <path d="M18 28 L38 12 L42 16 L22 32 Z" fill="#FFFFFF" opacity="0.55"/>
    <path d="M62 86 L62 22 L82 8 L86 12 L86 76 L72 88 Z" fill="url(#rightGrad)"/>
    <path d="M62 22 L82 8 L86 12 L66 26 Z" fill="#FFFFFF" opacity="0.5"/>
    <path d="M28 58 C40 48, 50 52, 58 48 C66 44, 72 38, 80 42 L78 52 C70 48, 64 54, 56 58 C46 64, 38 62, 30 68 Z" fill="url(#ribbonGrad)"/>
    <rect x="84" y="10" width="7" height="7" rx="1" fill="#FFFFFF"/>
    <rect x="93" y="6" width="6" height="6" rx="1" fill="#A8D4FF" opacity="0.9"/>
    <rect x="90" y="16" width="5" height="5" rx="0.8" fill="#FFFFFF"/>
    <rect x="99" y="12" width="4.5" height="4.5" rx="0.7" fill="#66B4FF" opacity="0.85"/>
    <rect x="96" y="22" width="4" height="4" rx="0.6" fill="#FFFFFF" opacity="0.7"/>
    <rect x="104" y="8" width="3.5" height="3.5" rx="0.5" fill="#A8D4FF" opacity="0.6"/>
    <rect x="102" y="18" width="3" height="3" rx="0.4" fill="#FFFFFF" opacity="0.45"/>
    <rect x="108" y="14" width="2.5" height="2.5" rx="0.3" fill="#66B4FF" opacity="0.4"/>
  </g>
</svg>
